<?xml version="1.0" standalone="no"?><!DOCTYPE svg PUBLIC "-//W3C//DTD SVG 1.1//EN" "http://www.w3.org/Graphics/SVG/1.1/DTD/svg11.dtd"><svg width="100%" height="100%" viewBox="0 0 32 32" version="1.1" xmlns="http://www.w3.org/2000/svg" xmlns:xlink="http://www.w3.org/1999/xlink" xml:space="preserve" style="fill-rule:evenodd;clip-rule:evenodd;stroke-linejoin:round;stroke-miterlimit:1.41421;"><path id="Fort Awesome" d="M12.786,17.875l0,-3.75c0,-0.179 -0.09,-0.268 -0.268,-0.268l-1.607,0c-0.179,0 -0.268,0.089 -0.268,0.268l0,3.75c0,0.179 0.089,0.268 0.268,0.268l1.607,0c0.178,0 0.268,-0.089 0.268,-0.268ZM21.357,17.875l0,-3.75c0,-0.179 -0.089,-0.268 -0.268,-0.268l-1.607,0c-0.178,0 -0.268,0.089 -0.268,0.268l0,3.75c0,0.179 0.09,0.268 0.268,0.268l1.607,0c0.179,0 0.268,-0.089 0.268,-0.268ZM29.929,18.411l0,12.589l-10.715,0l0,-5.357c0,-0.893 -0.312,-1.652 -0.937,-2.277c-0.625,-0.625 -1.384,-0.937 -2.277,-0.937c-0.893,0 -1.652,0.312 -2.277,0.937c-0.625,0.625 -0.937,1.384 -0.937,2.277l0,5.357l-10.715,0l0,-12.589c0,-0.179 0.09,-0.268 0.268,-0.268l1.607,0c0.179,0 0.268,0.089 0.268,0.268l0,1.875l2.143,0l0,-10.447c0,-0.178 0.089,-0.268 0.268,-0.268l1.607,0c0.179,0 0.268,0.09 0.268,0.268l0,1.875l2.143,0l0,-1.875c0,-0.178 0.089,-0.268 0.268,-0.268l1.607,0c0.178,0 0.268,0.09 0.268,0.268l0,1.875l2.143,0l0,-1.875c0,-0.178 0.089,-0.268 0.267,-0.268l0.268,0l0,-6.579c-0.357,-0.212 -0.535,-0.519 -0.535,-0.921c0,-0.29 0.106,-0.541 0.318,-0.753c0.212,-0.212 0.463,-0.318 0.753,-0.318c0.29,0 0.541,0.106 0.753,0.318c0.212,0.212 0.318,0.463 0.318,0.753c0,0.402 -0.178,0.709 -0.535,0.921l0,0.151l4.553,0c0.179,0 0.268,0.089 0.268,0.268l0,3.75c0,0.178 -0.089,0.268 -0.268,0.268l-4.553,0l0,2.142l0.268,0c0.178,0 0.267,0.09 0.267,0.268l0,1.875l2.143,0l0,-1.875c0,-0.178 0.09,-0.268 0.268,-0.268l1.607,0c0.179,0 0.268,0.09 0.268,0.268l0,1.875l2.143,0l0,-1.875c0,-0.178 0.089,-0.268 0.268,-0.268l1.607,0c0.179,0 0.268,0.09 0.268,0.268l0,10.447l2.143,0l0,-1.875c0,-0.179 0.089,-0.268 0.268,-0.268l1.607,0c0.178,0 0.268,0.089 0.268,0.268Z" style="fill:#000;fill-rule:nonzero;"/></svg>