<?xml version="1.0" standalone="no"?><!DOCTYPE svg PUBLIC "-//W3C//DTD SVG 1.1//EN" "http://www.w3.org/Graphics/SVG/1.1/DTD/svg11.dtd"><svg width="100%" height="100%" viewBox="0 0 32 32" version="1.1" xmlns="http://www.w3.org/2000/svg" xmlns:xlink="http://www.w3.org/1999/xlink" xml:space="preserve" style="fill-rule:evenodd;clip-rule:evenodd;stroke-linejoin:round;stroke-miterlimit:1.41421;"><path id="Trophy" d="M9.257,15.766c-0.889,-1.947 -1.334,-4.177 -1.334,-6.689l-4.615,0l0,1.731c0,0.937 0.568,1.911 1.703,2.92c1.136,1.01 2.552,1.689 4.246,2.038ZM28.692,10.808l0,-1.731l-4.615,0c0,2.512 -0.445,4.742 -1.334,6.689c1.695,-0.349 3.11,-1.028 4.246,-2.038c1.135,-1.009 1.703,-1.983 1.703,-2.92ZM31,8.5l0,2.308c0,0.853 -0.249,1.712 -0.748,2.578c-0.499,0.865 -1.172,1.646 -2.019,2.344c-0.848,0.697 -1.887,1.283 -3.119,1.757c-1.232,0.475 -2.527,0.743 -3.886,0.803c-0.504,0.649 -1.075,1.22 -1.712,1.712c-0.457,0.409 -0.773,0.845 -0.947,1.307c-0.174,0.463 -0.261,1.001 -0.261,1.614c0,0.649 0.183,1.196 0.55,1.641c0.366,0.444 0.952,0.667 1.757,0.667c0.902,0 1.704,0.273 2.407,0.82c0.703,0.547 1.055,1.235 1.055,2.064l0,1.154c0,0.168 -0.054,0.307 -0.162,0.415c-0.109,0.108 -0.247,0.162 -0.415,0.162l-15,0c-0.168,0 -0.306,-0.054 -0.415,-0.162c-0.108,-0.108 -0.162,-0.247 -0.162,-0.415l0,-1.154c0,-0.829 0.352,-1.517 1.055,-2.064c0.703,-0.547 1.505,-0.82 2.407,-0.82c0.805,0 1.391,-0.223 1.757,-0.667c0.367,-0.445 0.55,-0.992 0.55,-1.641c0,-0.613 -0.087,-1.151 -0.261,-1.614c-0.174,-0.462 -0.49,-0.898 -0.947,-1.307c-0.637,-0.492 -1.208,-1.063 -1.712,-1.712c-1.359,-0.06 -2.654,-0.328 -3.886,-0.803c-1.232,-0.474 -2.271,-1.06 -3.119,-1.757c-0.847,-0.698 -1.52,-1.479 -2.019,-2.344c-0.499,-0.866 -0.748,-1.725 -0.748,-2.578l0,-2.308c0,-0.481 0.168,-0.889 0.505,-1.226c0.336,-0.337 0.745,-0.505 1.226,-0.505l5.192,0l0,-1.731c0,-0.793 0.283,-1.472 0.847,-2.037c0.565,-0.565 1.244,-0.847 2.038,-0.847l10.384,0c0.794,0 1.473,0.282 2.038,0.847c0.564,0.565 0.847,1.244 0.847,2.037l0,1.731l5.192,0c0.481,0 0.89,0.168 1.226,0.505c0.337,0.337 0.505,0.745 0.505,1.226Z" style="fill:#000;fill-rule:nonzero;"/></svg>